<?xml version="1.0" encoding="utf-8"?>
<!-- Generator: Adobe Illustrator 25.0.1, SVG Export Plug-In . SVG Version: 6.00 Build 0)  -->
<svg version="1.1" id="レイヤー_1" xmlns="http://www.w3.org/2000/svg" xmlns:xlink="http://www.w3.org/1999/xlink" x="0px"
	 y="0px" viewBox="0 0 40 40" style="enable-background:new 0 0 40 40;" xml:space="preserve">
<style type="text/css">
	.st0{fill:url(#SVGID_1_);}
	.st1{fill:#FFFFFF;}
</style>
<g>
	<linearGradient id="SVGID_1_" gradientUnits="userSpaceOnUse" x1="34.1421" y1="5.8579" x2="5.8578" y2="34.1422">
		<stop  offset="1.104800e-03" style="stop-color:#FFE185"/>
		<stop  offset="0.2094" style="stop-color:#FFBB36"/>
		<stop  offset="0.3765" style="stop-color:#FF5176"/>
		<stop  offset="0.5238" style="stop-color:#F63395"/>
		<stop  offset="0.7394" style="stop-color:#A436D2"/>
		<stop  offset="1" style="stop-color:#5F4EED"/>
	</linearGradient>
	<circle class="st0" cx="20" cy="20" r="20"/>
	<g>
		<g>
			<path class="st1" d="M26.2,12.5c-0.8,0-1.4,0.6-1.4,1.4c0,0.8,0.6,1.4,1.4,1.4c0.8,0,1.4-0.6,1.4-1.4
				C27.6,13.1,27,12.5,26.2,12.5z"/>
			<path class="st1" d="M20.1,14.2c-3.2,0-5.8,2.6-5.8,5.8c0,3.2,2.6,5.8,5.8,5.8c3.2,0,5.8-2.6,5.8-5.8
				C25.9,16.8,23.3,14.2,20.1,14.2z M20.1,23.7c-2,0-3.7-1.7-3.7-3.7s1.7-3.7,3.7-3.7c2,0,3.7,1.7,3.7,3.7S22.1,23.7,20.1,23.7z"/>
			<path class="st1" d="M24.7,31.7h-9.4c-3.9,0-7-3.2-7-7v-9.4c0-3.9,3.2-7,7-7h9.4c3.9,0,7,3.2,7,7v9.4
				C31.7,28.6,28.6,31.7,24.7,31.7z M15.3,10.5c-2.7,0-4.8,2.2-4.8,4.8v9.4c0,2.7,2.2,4.8,4.8,4.8h9.4c2.7,0,4.8-2.2,4.8-4.8v-9.4
				c0-2.7-2.2-4.8-4.8-4.8H15.3z"/>
		</g>
	</g>
</g>
</svg>
