<?xml version="1.0" encoding="utf-8"?>
<!-- Generator: Adobe Illustrator 25.0.1, SVG Export Plug-In . SVG Version: 6.00 Build 0)  -->
<svg version="1.1" id="レイヤー_1" xmlns="http://www.w3.org/2000/svg" xmlns:xlink="http://www.w3.org/1999/xlink" x="0px"
	 y="0px" viewBox="0 0 40 40" style="enable-background:new 0 0 40 40;" xml:space="preserve">
<style type="text/css">
	.st0{fill:#FF0000;}
	.st1{fill:#FFFFFF;}
</style>
<g>
	<circle class="st0" cx="20" cy="20" r="20"/>
	<path class="st1" d="M30.7,17.1c0-2.7-2.2-4.8-4.8-4.8H13.6c-2.7,0-4.8,2.2-4.8,4.8v5.7c0,2.7,2.2,4.8,4.8,4.8h12.3
		c2.7,0,4.8-2.2,4.8-4.8V17.1z M23.5,20.4L18,23.1c-0.2,0.1-0.9,0-0.9-0.3v-5.6c0-0.2,0.7-0.4,1-0.3l5.3,2.9
		C23.5,19.9,23.7,20.3,23.5,20.4z"/>
</g>
</svg>
